<?xml version="1.0" encoding="UTF-8" standalone="no"?>
<!-- Created with Inkscape (http://www.inkscape.org/) -->

<svg
   xmlns:dc="http://purl.org/dc/elements/1.1/"
   xmlns:cc="http://creativecommons.org/ns#"
   xmlns:rdf="http://www.w3.org/1999/02/22-rdf-syntax-ns#"
   xmlns:svg="http://www.w3.org/2000/svg"
   xmlns="http://www.w3.org/2000/svg"
   xmlns:xlink="http://www.w3.org/1999/xlink"
   xmlns:sodipodi="http://sodipodi.sourceforge.net/DTD/sodipodi-0.dtd"
   xmlns:inkscape="http://www.inkscape.org/namespaces/inkscape"
   version="1.2"
   width="190.22328mm"
   height="81.821785mm"
   id="svg5631"
   inkscape:version="0.91 r13725"
   sodipodi:docname="RIF_red.svg">
  <sodipodi:namedview
     pagecolor="#ffffff"
     bordercolor="#666666"
     borderopacity="1"
     objecttolerance="10"
     gridtolerance="10"
     guidetolerance="10"
     inkscape:pageopacity="0"
     inkscape:pageshadow="2"
     inkscape:window-width="1920"
     inkscape:window-height="1016"
     id="namedview5795"
     showgrid="false"
     inkscape:zoom="2.5371828"
     inkscape:cx="221.22659"
     inkscape:cy="141.54972"
     inkscape:window-x="0"
     inkscape:window-y="27"
     inkscape:window-maximized="1"
     inkscape:current-layer="layer1"
     fit-margin-top="0"
     fit-margin-left="0"
     fit-margin-right="0"
     fit-margin-bottom="0" />
  <defs
     id="defs5633">
    <linearGradient
       id="linearGradient4448">
      <stop
         id="stop4450"
         style="stop-color:#ffffff;stop-opacity:1"
         offset="0" />
      <stop
         id="stop4452"
         style="stop-color:#999999;stop-opacity:0"
         offset="1" />
    </linearGradient>
    <linearGradient
       id="linearGradient4398">
      <stop
         id="stop4418"
         style="stop-color:#ffffff;stop-opacity:0.49803922"
         offset="0" />
      <stop
         id="stop4402"
         style="stop-color:#ffffff;stop-opacity:0"
         offset="1" />
    </linearGradient>
    <linearGradient
       id="linearGradient4372">
      <stop
         id="stop4374"
         style="stop-color:#020508;stop-opacity:1"
         offset="0" />
      <stop
         id="stop4376"
         style="stop-color:#020508;stop-opacity:0"
         offset="1" />
    </linearGradient>
    <linearGradient
       id="linearGradient4307">
      <stop
         id="stop4309"
         style="stop-color:#160800;stop-opacity:1"
         offset="0" />
      <stop
         id="stop4315"
         style="stop-color:#7e2c00;stop-opacity:0.49803922"
         offset="0.5" />
      <stop
         id="stop4311"
         style="stop-color:#e65100;stop-opacity:0"
         offset="1" />
    </linearGradient>
    <linearGradient
       id="linearGradient4263">
      <stop
         id="stop4265"
         style="stop-color:#f8f8f8;stop-opacity:1"
         offset="0" />
      <stop
         id="stop4285"
         style="stop-color:#f7f5f4;stop-opacity:0.98431373"
         offset="0.015625" />
      <stop
         id="stop4283"
         style="stop-color:#f7f3f0;stop-opacity:0.96862745"
         offset="0.03125" />
      <stop
         id="stop4281"
         style="stop-color:#f7efe8;stop-opacity:0.93725491"
         offset="0.0625" />
      <stop
         id="stop4279"
         style="stop-color:#f7e6d9;stop-opacity:0.87450981"
         offset="0.125" />
      <stop
         id="stop4277"
         style="stop-color:#f6d5ba;stop-opacity:0.74901962"
         offset="0.25" />
      <stop
         id="stop4275"
         style="stop-color:#f5b27c;stop-opacity:0.49803922"
         offset="0.5" />
      <stop
         id="stop4267"
         style="stop-color:#f26d00;stop-opacity:0"
         offset="1" />
    </linearGradient>
    <linearGradient
       id="linearGradient4027">
      <stop
         id="stop4029"
         style="stop-color:#f26d00;stop-opacity:1"
         offset="0" />
      <stop
         id="stop4031"
         style="stop-color:#f26d00;stop-opacity:0"
         offset="1" />
    </linearGradient>
    <linearGradient
       id="linearGradient6454">
      <stop
         id="stop6456"
         style="stop-color:#313131;stop-opacity:1"
         offset="0" />
    </linearGradient>
    <linearGradient
       x1="246.56747"
       y1="521.52704"
       x2="284.52649"
       y2="514.20343"
       id="linearGradient6458-9"
       xlink:href="#linearGradient6454-6"
       gradientUnits="userSpaceOnUse" />
    <linearGradient
       id="linearGradient6454-6">
      <stop
         id="stop6456-8"
         style="stop-color:#313131;stop-opacity:1"
         offset="0" />
    </linearGradient>
    <linearGradient
       x1="246.56747"
       y1="521.52704"
       x2="284.52649"
       y2="514.20343"
       id="linearGradient6474-0"
       xlink:href="#linearGradient6454-6-4"
       gradientUnits="userSpaceOnUse"
       gradientTransform="translate(58.659371,104.48953)" />
    <linearGradient
       id="linearGradient6454-6-4">
      <stop
         id="stop6456-8-8"
         style="stop-color:#313131;stop-opacity:1"
         offset="0" />
    </linearGradient>
    <linearGradient
       x1="246.56747"
       y1="521.52704"
       x2="284.52649"
       y2="514.20343"
       id="linearGradient6521"
       xlink:href="#linearGradient6454-6-4"
       gradientUnits="userSpaceOnUse"
       gradientTransform="translate(95.159876,188.25833)" />
    <linearGradient
       id="linearGradient6454-6-2">
      <stop
         id="stop6456-8-9"
         style="stop-color:#313131;stop-opacity:1"
         offset="0" />
    </linearGradient>
    <linearGradient
       id="linearGradient6454-1">
      <stop
         id="stop6456-5"
         style="stop-color:#313131;stop-opacity:1"
         offset="0" />
    </linearGradient>
    <linearGradient
       x1="63.302135"
       y1="596.78339"
       x2="319.0903"
       y2="658.21198"
       id="linearGradient4273"
       xlink:href="#linearGradient4263"
       gradientUnits="userSpaceOnUse"
       gradientTransform="translate(-1.0101525,0)" />
    <linearGradient
       x1="529.13947"
       y1="769.48108"
       x2="205.04144"
       y2="766.25629"
       id="linearGradient4313"
       xlink:href="#linearGradient4307"
       gradientUnits="userSpaceOnUse"
       gradientTransform="translate(-39.05484,-171.27073)" />
    <linearGradient
       x1="441.28232"
       y1="760.19537"
       x2="205.04144"
       y2="766.25629"
       id="linearGradient4313-3"
       xlink:href="#linearGradient4307-9"
       gradientUnits="userSpaceOnUse"
       gradientTransform="translate(-39.05484,-171.27073)" />
    <linearGradient
       id="linearGradient4307-9">
      <stop
         id="stop4309-4"
         style="stop-color:#160800;stop-opacity:1"
         offset="0" />
      <stop
         id="stop4315-7"
         style="stop-color:#7e2c00;stop-opacity:0.49803922"
         offset="0.5" />
      <stop
         id="stop4311-3"
         style="stop-color:#e65100;stop-opacity:0"
         offset="1" />
    </linearGradient>
    <linearGradient
       x1="923.6781"
       y1="516.64783"
       x2="767.75049"
       y2="499.505"
       id="linearGradient4404"
       xlink:href="#linearGradient4398"
       gradientUnits="userSpaceOnUse"
       gradientTransform="translate(-230.5843,78.658086)" />
    <linearGradient
       x1="344.73871"
       y1="437.36221"
       x2="723.8327"
       y2="433.79077"
       id="linearGradient4416"
       xlink:href="#linearGradient4372"
       gradientUnits="userSpaceOnUse"
       gradientTransform="translate(-134.57477,169.56865)" />
    <radialGradient
       cx="228.72731"
       cy="696.44257"
       r="211.12189"
       fx="228.72731"
       fy="696.44257"
       id="radialGradient4454"
       xlink:href="#linearGradient4448"
       gradientUnits="userSpaceOnUse"
       gradientTransform="matrix(1.439725,-0.02106542,0.02076981,1.4195207,-126.73487,-289.06304)" />
    <radialGradient
       cx="228.72731"
       cy="696.44257"
       r="211.12189"
       fx="228.72731"
       fy="696.44257"
       id="radialGradient4454-7"
       xlink:href="#linearGradient4448-2"
       gradientUnits="userSpaceOnUse"
       gradientTransform="matrix(1.439725,-0.02106542,0.02076981,1.4195207,-126.73487,-289.06304)" />
    <linearGradient
       id="linearGradient4448-2">
      <stop
         id="stop4450-6"
         style="stop-color:#ffffff;stop-opacity:1"
         offset="0" />
      <stop
         id="stop4452-5"
         style="stop-color:#999999;stop-opacity:0"
         offset="1" />
    </linearGradient>
  </defs>
  <metadata
     id="metadata5636">
    <rdf:RDF>
      <cc:Work
         rdf:about="">
        <dc:format>image/svg+xml</dc:format>
        <dc:type
           rdf:resource="http://purl.org/dc/dcmitype/StillImage" />
        <dc:title />
      </cc:Work>
    </rdf:RDF>
  </metadata>
  <g
     id="layer1"
     transform="matrix(0.63493683,0,0,0.67200085,-34.662982,-250.26761)"
     inkscape:export-xdpi="18.560295"
     inkscape:export-ydpi="18.560295">
    <path
       d="m 246.7851,454.78969 c -68.16532,70.39019 -84.79441,143.49282 -63.69627,218.58109"
       id="path5913"
       style="fill:none;stroke:#787878;stroke-width:6;stroke-linecap:butt;stroke-linejoin:miter;stroke-miterlimit:4;stroke-dasharray:none;stroke-opacity:1"
       inkscape:connector-curvature="0" />
    <path
       d="m 161.11647,633.05208 c 10.0743,109.38474 239.7058,163.15844 369.34229,87.72239"
       id="path4640-9-2-0"
       style="opacity:1;fill:none;stroke:#787878;stroke-width:6;stroke-linecap:round;stroke-linejoin:miter;stroke-miterlimit:4;stroke-dasharray:none;stroke-opacity:1"
       inkscape:connector-curvature="0" />
    <path
       d="m 185.50949,667.32111 a 16.003562,11.560194 86.674562 0 1 -4.48702,31.11476 16.003562,11.560194 86.674562 0 1 4.48702,-31.11476 z"
       id="path6568-0-1"
       style="fill:#787878;fill-opacity:1;fill-rule:nonzero;stroke:#000000;stroke-width:0;stroke-linecap:round;stroke-linejoin:miter;stroke-miterlimit:4;stroke-dasharray:none;stroke-opacity:1"
       inkscape:connector-curvature="0" />
    <path
       d="m 526.52632,664.57423 a 11.470055,16.129321 26.675111 0 1 -14.4819,28.82524 11.470055,16.129321 26.675111 1 1 14.4819,-28.82524 z"
       id="path6568-7-5"
       style="fill:#787878;fill-opacity:1;fill-rule:nonzero;stroke:#787878;stroke-width:0;stroke-linecap:round;stroke-linejoin:miter;stroke-miterlimit:4;stroke-dasharray:none;stroke-opacity:1"
       inkscape:connector-curvature="0" />
    <path
       d="m 254.62105,534.16306 a 13.816584,17.498832 37.399577 0 1 -20.86583,28.09466 13.816584,17.498832 37.399577 1 1 20.86583,-28.09466 z"
       id="path6568-2-5"
       style="fill:#787878;fill-opacity:1;fill-rule:nonzero;stroke:#787878;stroke-width:0;stroke-linecap:round;stroke-linejoin:miter;stroke-miterlimit:4;stroke-dasharray:none;stroke-opacity:1"
       inkscape:connector-curvature="0" />
    <path
       d="M 196.23858,708.83892 C 330.96954,812.01912 629.47381,687.6201 568.32019,523.09377"
       id="path4640-9-2-3"
       style="fill:none;stroke:#787878;stroke-width:6;stroke-linecap:round;stroke-linejoin:miter;stroke-miterlimit:4;stroke-dasharray:none;stroke-opacity:1"
       inkscape:connector-curvature="0" />
    <path
       d="M 554.16267,490.44957 C 506.10341,399.70347 124.40758,527.9691 187.41042,691.79619"
       id="path4640-9-2-7"
       style="fill:none;stroke:#787878;stroke-width:6;stroke-linecap:round;stroke-linejoin:miter;stroke-miterlimit:4;stroke-dasharray:none;stroke-opacity:1"
       inkscape:connector-curvature="0" />
    <path
       d="m 492.11937,473.38231 a 16.160197,13.759615 27.895483 0 1 -29.49229,-13.15376 16.160197,13.759615 27.895483 0 1 29.49229,13.15376 z"
       id="path6568-8-8"
       style="fill:#787878;fill-opacity:1;fill-rule:nonzero;stroke:#1d1d1d;stroke-width:0;stroke-linecap:round;stroke-linejoin:miter;stroke-miterlimit:4;stroke-dasharray:none;stroke-opacity:1"
       inkscape:connector-curvature="0" />
    <path
       d="M 515.05125,678.0159 C 526.87902,600.40821 500.53473,370.97557 340.083,377.15067"
       id="path4640-9-2"
       style="fill:none;stroke:#787878;stroke-width:6;stroke-linecap:round;stroke-linejoin:miter;stroke-miterlimit:4;stroke-dasharray:none;stroke-opacity:1"
       inkscape:connector-curvature="0" />
    <path
       d="m 579.82758,588.70215 a 211.12189,211.12189 0 1 1 -422.24378,0 211.12189,211.12189 0 1 1 422.24378,0 z"
       transform="matrix(-0.55404247,0.8324884,-0.8324884,-0.55404247,1061.7988,605.77276)"
       id="path5639-9-1"
       style="fill:none;stroke:#787878;stroke-width:6;stroke-linecap:round;stroke-linejoin:miter;stroke-miterlimit:4;stroke-dasharray:none;stroke-opacity:1"
       inkscape:connector-curvature="0" />
    <path
       d="m 579.82758,588.70215 a 211.12189,169.9119 0 1 1 -422.24378,0 211.12189,169.9119 0 1 1 422.24378,0 z"
       transform="matrix(0.01062663,-0.07368907,0.05380094,0.01751252,543.52963,595.81411)"
       id="path6568-0-9-6"
       style="fill:#787878;fill-opacity:1;fill-rule:nonzero;stroke:#1d1d1d;stroke-width:0;stroke-linecap:round;stroke-linejoin:miter;stroke-miterlimit:4;stroke-dasharray:none;stroke-opacity:1"
       inkscape:connector-curvature="0" />
    <path
       d="M 579.24071,579.36554 C 578.56365,426.66582 167.75363,371.00648 160.57491,544.31001"
       id="path4640-9"
       style="fill:none;stroke:#787878;stroke-width:6;stroke-linecap:round;stroke-linejoin:miter;stroke-miterlimit:4;stroke-dasharray:none;stroke-opacity:1"
       inkscape:connector-curvature="0" />
    <path
       d="m 261.25343,445.44812 a 11.470057,16.129322 52.626243 1 1 -25.63571,19.58138 11.470057,16.129322 52.626243 0 1 25.63571,-19.58138 z"
       id="path6568-1"
       style="fill:#787878;fill-opacity:1;fill-rule:nonzero;stroke:#540606;stroke-width:0;stroke-linecap:round;stroke-linejoin:miter;stroke-miterlimit:4;stroke-dasharray:none;stroke-opacity:1"
       inkscape:connector-curvature="0" />
    <path
       d="M 290.59878,389.62104 C 197.90154,420.97437 260.94486,834.80951 410.36426,792.7567"
       id="path4640"
       style="fill:none;stroke:#787878;stroke-width:6;stroke-linecap:round;stroke-linejoin:miter;stroke-miterlimit:4;stroke-dasharray:none;stroke-opacity:1"
       inkscape:connector-curvature="0" />
    <path
       d="m 250.3106,454.78969 c 48.18199,-42.80943 120.02032,-45.06514 200.95359,-31.72952"
       id="path5911"
       style="fill:none;stroke:#787878;stroke-width:6;stroke-linecap:butt;stroke-linejoin:miter;stroke-miterlimit:4;stroke-dasharray:none;stroke-opacity:1"
       inkscape:connector-curvature="0" />
    <path
       d="M 578.18224,580.82636 C 563.28529,469.83361 505.6349,445.52433 449.50143,422.1788"
       id="path5873-5"
       style="fill:none;stroke:#787878;stroke-width:6;stroke-linecap:butt;stroke-linejoin:miter;stroke-miterlimit:4;stroke-dasharray:none;stroke-opacity:1"
       inkscape:connector-curvature="0" />
    <path
       d="M 315.53238,752.69456 C 378.19646,687.53333 447.46413,643.83379 474.17994,461.84069"
       id="path5873"
       style="fill:none;stroke:#787878;stroke-width:6;stroke-linecap:butt;stroke-linejoin:miter;stroke-miterlimit:4;stroke-dasharray:none;stroke-opacity:1"
       inkscape:connector-curvature="0" />
    <path
       d="m 317.52062,733.56306 a 15.996765,14.990655 84.465314 1 1 -6.20569,31.19886 15.996765,14.990655 84.465314 0 1 6.20569,-31.19886 z"
       id="path6568-0-1-8"
       style="fill:#787878;fill-opacity:1;fill-rule:nonzero;stroke:#000000;stroke-width:0;stroke-linecap:round;stroke-linejoin:miter;stroke-miterlimit:4;stroke-dasharray:none;stroke-opacity:1"
       inkscape:connector-curvature="0" />
    <path
       d="m 239.7341,557.02923 c 217.5085,-99.27856 303.6142,-7.26675 334.92264,19.39026"
       id="path5953"
       style="fill:none;stroke:#787878;stroke-width:6;stroke-linecap:butt;stroke-linejoin:miter;stroke-miterlimit:4;stroke-dasharray:none;stroke-opacity:1"
       inkscape:connector-curvature="0" />
    <path
       d="m 500.23041,632.99225 c 63.89271,13.93792 65.07595,-8.15983 18.2513,49.30068 -44.48627,41.53376 -23.01916,43.81899 -50.26941,-10.48435 -18.46322,-65.79059 -28.14611,-51.08854 32.01811,-38.81633 z"
       id="path6471-5-3-0"
       style="fill:#ee6e73;fill-opacity:1;stroke:none;opacity:1"
       inkscape:connector-curvature="0" />
    <path
       d="m 162.03889,496.44415 -11.21808,44.87231 c 55.55912,-52.74057 117.67654,-74.00131 178.866,-99.71624 -51.16085,-7.4827 -113.18576,20.51 -167.64792,54.84393 z"
       id="path4162"
       style="fill:#ee6e73;fill-opacity:1;stroke:none"
       inkscape:connector-curvature="0" />
    <path
       d="m 157.67631,655.99013 9.97162,54.84393 c 89.36864,22.14939 187.09184,27.58965 307.87388,-13.08775 L 457.44824,645.39528 C 318.8296,699.44493 216.41283,682.18201 157.67631,655.99013 Z"
       id="path4976"
       style="fill:#ee6e73;fill-opacity:1;stroke:none"
       inkscape:connector-curvature="0" />
    <path
       d="m 218.46292,484.7829 c -4.58276,2.5784 -15.07229,9.2391 -22.35695,14.146 -53.92043,36.3204 -80.38138,67.915 -82.75708,101.357 -1.54412,21.7362 12.13471,40.418 33.49185,55.0505 30.1549,20.6602 71.35308,29.7181 129.63954,31.0863 15.3243,0.3598 64.56589,-2.3954 83.46618,-5.3173 27.79971,-4.2977 66.31979,-14.3284 91.48064,-22.8133 6.95639,-2.3459 18.46098,-6.6467 18.8432,-5.7203 2.54276,6.1626 6.57456,16.7757 9.30715,31.5884 0.1473,0.7988 -5.97021,2.2119 -7.51157,3.2129 -2.26538,1.4712 -10.99004,4.1748 -20.8902,7.653 -32.08415,11.2718 -51.47397,15.4828 -95.96448,19.236 -47.0383,3.9683 -70.89079,5.3705 -110.2495,-3.5361 -68.82589,-15.5748 -121.4819,-40.2616 -139.24451,-75.585 -5.46268,-10.8633 -6.62477,-14.575 -7.43193,-27.7823 -0.80941,-13.2437 0.7287,-19.2297 4.94488,-31.2802 8.73186,-24.9568 33.00595,-48.571 69.44138,-72.1199 6.41089,-4.1435 13.02478,-8.8394 20.09581,-12.6938 4.79798,-2.6153 8.92086,-5.2312 14.12509,-8.176 22.64637,-12.8143 91.11299,-40.55701 105.47075,-37.84701 -14.94224,9.04727 -63.41656,22.30221 -93.90025,39.54111 z"
       id="path3289-0-3"
       style="fill:#1389a5;fill-opacity:1;stroke:#1d1d1d;stroke-width:0;stroke-linecap:round;stroke-linejoin:round;stroke-miterlimit:4;stroke-dasharray:none;stroke-opacity:1"
       inkscape:connector-curvature="0" />
    <path
       d="m 105.88952,629.1608 c 37.6731,78.2652 189.42613,91.1476 290.8843,80.4261 -88.33361,17.2332 -255.8033,25.4234 -308.22348,-66.343 -35.36634,-76.1957 72.33567,-161.13334 206.70577,-197.68303 15.02039,-5.6586 29.65404,-1.39827 1.65664,3.63078 C 180.86657,483.94166 83.74984,553.5751 105.88952,629.1608 Z"
       id="path4287-3"
       style="fill:#1389a5;fill-opacity:1;fill-rule:nonzero;stroke:#1d1d1d;stroke-width:0;stroke-linecap:round;stroke-linejoin:miter;stroke-miterlimit:4;stroke-dasharray:none;stroke-opacity:1"
       inkscape:connector-curvature="0" />
    <path
       d="m 596.47902,653.58377 c 30.54176,22.9479 68.85218,2.4623 68.85218,2.4623 -19.23695,-11.6653 -28.35928,-16.4657 -30.30349,-44.6734 z"
       id="path6630-8-8-0"
       style="fill:#5fd35f;fill-opacity:1;stroke:#000000;stroke-width:0;stroke-linecap:butt;stroke-linejoin:miter;stroke-miterlimit:4;stroke-dasharray:none;stroke-opacity:1"
       inkscape:connector-curvature="0" />
    <path
       d="m 54.592822,683.74854 c 34.067261,8.8459 80.310058,-1.94457 80.310058,-1.94457 -19.23695,-11.6653 -18.66415,-23.51671 -41.761368,-42.02928 -7.40574,20.68936 -7.344869,33.86195 -38.54869,43.97385 z"
       id="path6630-8-8-0-9"
       style="fill:#1389a5;fill-opacity:1;stroke:#000000;stroke-width:0;stroke-linecap:butt;stroke-linejoin:miter;stroke-miterlimit:4;stroke-dasharray:none;stroke-opacity:1"
       inkscape:connector-curvature="0" />
    <path
       d="m 465.24242,429.96452 a 16.129322,11.470057 24.744256 1 1 -29.29682,-13.50246 16.129322,11.470057 24.744256 0 1 29.29682,13.50246 z"
       id="path6568-1-5"
       style="fill:#787878;fill-opacity:1;fill-rule:nonzero;stroke:#540606;stroke-width:0;stroke-linecap:round;stroke-linejoin:miter;stroke-miterlimit:4;stroke-dasharray:none;stroke-opacity:1"
       inkscape:connector-curvature="0" />
    <path
       d="m 579.83774,679.72608 9.81653,-45.19962 c -53.8913,54.44367 -115.31716,77.62678 -175.67692,105.23306 51.36888,5.8873 112.49282,-24.02163 165.86039,-60.03344 z"
       id="path4162-3"
       style="fill:#ee6e73;fill-opacity:1;stroke:none"
       inkscape:connector-curvature="0" />
    <path
       d="m 587.97879,526.44384 -8.86113,-53.68385 C 488.09545,442.40331 393.0103,447.69877 272.12803,488.3268 l 16.61982,44.18064 c 139.09299,-52.81697 240.72925,-32.77585 299.23094,-6.0636 z"
       id="path4976-4"
       style="fill:#ee6e73;fill-opacity:1;stroke:none"
       inkscape:connector-curvature="0" />
    <path
       d="m 628.18984,546.66367 c -39.59805,-77.30911 -191.62336,-86.43283 -292.78519,-73.20429 87.88017,-19.41351 255.09595,-31.74482 309.7706,58.69649 37.24079,75.29732 -68.28814,164.43136 -201.71277,204.29451 -14.32177,5.10995 -29.64892,0.57397 -1.78452,-5.14627 115.15085,-37.61064 210.51495,-109.62567 186.51188,-184.64044 z"
       id="path4287-3-4"
       style="fill:#5fd35f;fill-opacity:1;fill-rule:nonzero;stroke:#1d1d1d;stroke-width:0;stroke-linecap:round;stroke-linejoin:miter;stroke-miterlimit:4;stroke-dasharray:none;stroke-opacity:1"
       inkscape:connector-curvature="0" />
    <path
       d="m 280.34018,509.14657 c 21.66335,61.70287 38.69398,47.67035 -34.60717,37.33878 -65.62215,-7.1477 -66.93761,9.8214 -21.50133,-43.46974 46.31577,-50.24084 34.98375,-51.52392 56.1085,6.13096 z"
       id="path6471-5-3-0-9"
       style="fill:#ee6e73;fill-opacity:1;stroke:none"
       inkscape:connector-curvature="0" />
    <path
       d="m 521.88714,695.46523 c 4.58298,-2.57801 15.07309,-9.23779 22.35819,-14.14405 53.92361,-36.31569 80.38732,-67.90798 82.76594,-101.34976 1.54602,-21.73607 -12.13117,-40.41907 -33.48704,-55.05344 -30.15309,-20.66283 -71.35048,-29.72433 -129.63683,-31.09762 -15.32426,-0.36114 -64.5661,2.38974 -83.46664,5.31 -27.80009,4.29527 -66.32104,14.3226 -91.48264,22.8053 -6.95659,2.34529 -18.46155,6.64508 -18.8437,5.71865 -2.54222,-6.16282 -6.57309,-16.77627 -9.30438,-31.58921 -0.14723,-0.79882 5.97041,-2.21138 7.51185,-3.21224 2.26551,-1.47101 10.9904,-4.17385 20.89087,-7.65118 32.08513,-11.26899 51.47532,-15.4783 95.96616,-19.22761 47.03864,-3.96419 70.89126,-5.3643 110.24918,3.54574 68.82455,15.58081 121.47839,40.27222 139.23792,75.59717 5.46173,10.86378 6.62349,14.57558 7.4295,27.78295 0.80825,13.24377 -0.73038,19.22964 -4.94761,31.27976 -8.73405,24.95605 -33.0102,48.56812 -69.44768,72.11384 -6.41126,4.14293 -13.02556,8.83826 -20.09693,12.69204 -4.79821,2.61488 -8.92132,5.23042 -14.12581,8.17476 -22.64749,12.81232 -91.11653,40.54905 -105.47406,37.83779 14.94303,-9.04596 63.41851,-22.29666 93.90371,-39.53289 z"
       id="path3289-0-3-1"
       style="fill:#5fd35f;fill-opacity:1;stroke:#1d1d1d;stroke-width:0;stroke-linecap:round;stroke-linejoin:round;stroke-miterlimit:4;stroke-dasharray:none;stroke-opacity:1"
       inkscape:connector-curvature="0" />
    <path
       d="m 502.61767,637.77204 c 53.11509,9.71228 49.74698,-2.00106 13.38531,39.57439 -33.68504,36.31176 -24.30959,37.90424 -42.20063,-8.53412 -15.34879,-45.8446 -21.20022,-39.59189 28.81532,-31.04027 z"
       id="path6471-5"
       style="fill:#1389a5;fill-opacity:1;stroke:none"
       inkscape:connector-curvature="0" />
    <path
       d="m 247.04861,541.6605 c -53.51855,-7.16279 -49.5945,4.3762 -15.26129,-38.88948 31.9112,-37.88009 22.47036,-39.0227 42.56026,6.50758 17.52219,45.05869 23.06811,38.53349 -27.29897,32.3819 z"
       id="path6471-5-0"
       style="fill:#5fd35f;fill-opacity:1;stroke:none"
       inkscape:connector-curvature="0" />
  </g>
  <g
     style="fill:none;stroke:none"
     id="g6913"
     transform="translate(-92.155672,-257.90551)">
    <g
       id="g6895"
       clip-path="url(#p.0)">
      <path
         id="path6897"
         d="m 0,0 960,0 0,720 -960,0 z"
         inkscape:connector-curvature="0"
         style="fill:#000000;fill-opacity:0;fill-rule:nonzero" />
      <path
         id="path6899"
         d="m 341.5643,373.63516 466.3622,0 0,216.78738 -466.3622,0 z"
         inkscape:connector-curvature="0"
         style="fill:#000000;fill-opacity:0;fill-rule:nonzero" />
      <path
         id="path6901"
         d="m 517.12683,472.20267 -14.87503,0 -5.8125,33.3125 -18.3125,0 15.8125,-91 30.12503,0.0625 q 15.125,0 23.28125,7.125 8.15625,7.125 7.21875,19.8125 -1.3125,18.75 -20,26.0625 l 12.8125,36.9375 0,1 -19.5,0 -10.75,-33.3125 z m -12.25003,-15.1875 13.62503,0.125 q 7.25,-0.125 11.96875,-3.90625 4.71875,-3.78125 5.65625,-10.28125 0.875,-6.0625 -1.9375,-9.5 -2.8125,-3.4375 -8.9375,-3.6875 l -15.62503,-0.0625 -4.75,27.3125 z m 72.62503,48.5 -18.3125,0 15.75,-91 18.3125,0 -15.75,91 z m 77,-37.1875 -34.875,0 -6.5,37.1875 -18.3125,0 15.8125,-91 57.625,0 -2.6875,15.1875 -39.25,0 -4.125,23.5 35,0 -2.6875,15.125 z"
         inkscape:connector-curvature="0"
         style="fill:#134f5c;fill-rule:nonzero"
         inkscape:export-xdpi="18.560295"
         inkscape:export-ydpi="18.560295" />
      <path
         id="path6903"
         d="m 371.08923,492.27036 785.44887,0 0,91.62204 -785.44887,0 z"
         inkscape:connector-curvature="0"
         style="fill:#000000;fill-opacity:0;fill-rule:nonzero" />
      <path
         id="path6905"
         d="m 492.15173,533.53784 -7.875,0 -2.39063,13.8125 -4.4375,0 5.9375,-34.125 10.26563,0.0156 q 5.35937,0.0312 8.17187,2.73438 2.8125,2.6875 2.375,7.32812 -0.26562,3.20313 -2.34375,5.64063 -2.0625,2.4375 -5.51562,3.6875 l 5.29687,14.40625 -0.0156,0.3125 -4.6875,0 -4.78125,-13.8125 z m -7.25,-3.67188 6.46875,0.0156 q 3.375,0 5.6875,-1.78125 2.32812,-1.79688 2.73437,-4.79688 0.34375,-2.9375 -1.1875,-4.59375 -1.51562,-1.67187 -4.625,-1.76562 l -6.82812,-0.0156 -2.25,12.9375 z m 31.78906,17.95313 q -4.73437,-0.0937 -7.40625,-3.48438 -2.67187,-3.40625 -2.25,-8.70312 l 0.10938,-1.01563 q 0.40625,-3.76562 2.23437,-6.875 1.84375,-3.125 4.48438,-4.70312 2.65625,-1.59375 5.73437,-1.51563 3.90625,0.0937 6.125,2.60938 2.23438,2.5 2.45313,6.78125 0.0625,1.53125 -0.0937,3.04687 l -0.26563,1.95313 -16.5625,0 q -0.42187,3.4375 1.125,5.85937 1.5625,2.40625 4.65625,2.5 3.75,0.0937 6.9375,-3.375 l 2.4375,2.0625 q -1.59375,2.29688 -4.10937,3.60938 -2.51563,1.29687 -5.60938,1.25 z m 2.6875,-22.76563 q -2.625,-0.0625 -4.57812,1.79688 -1.95313,1.84375 -3.10938,5.5 l 12.32813,0.0156 0.0937,-0.375 q 0.375,-2.95312 -0.95313,-4.90625 -1.3125,-1.95312 -3.78125,-2.03125 z m 19.64063,-3.09375 -0.60938,3.21875 q 3.42188,-3.75 7.78125,-3.65625 3.59375,0.0937 5.29688,2.48438 1.71875,2.39062 1.26562,6.71875 l -2.76562,16.625 -4.23438,0 2.78125,-16.6875 q 0.14063,-1.15625 0.0312,-2.14063 -0.40625,-3.28125 -3.875,-3.34375 -3.8125,-0.0781 -6.70312,4.07813 l -3.14063,18.09375 -4.23437,0 4.40625,-25.35938 4,-0.0312 z m 28.21875,22.34375 q 2.28125,0.0469 4.10937,-1.32812 1.82813,-1.375 2.39063,-3.59375 l 4,-0.0312 q -0.34375,2.39062 -1.90625,4.35937 -1.5625,1.96875 -3.9375,3.07813 -2.35938,1.10937 -4.84375,1.03125 -3.15625,-0.0469 -5.35938,-1.65625 -2.1875,-1.60938 -3.21875,-4.46875 -1.03125,-2.875 -0.70312,-6.46875 l 0.125,-1.17188 q 0.4375,-3.65625 2.125,-6.53125 1.6875,-2.89062 4.40625,-4.48437 2.71875,-1.60938 6,-1.51563 3.98437,0.0937 6.375,2.67188 2.39062,2.57812 2.39062,6.53125 l -3.95312,-0.0156 q -0.0469,-2.48437 -1.39063,-4.01562 -1.32812,-1.54688 -3.60937,-1.64063 -3.29688,-0.0625 -5.5,2.46875 -2.1875,2.53125 -2.71875,7.07813 l -0.0781,0.60937 q -0.14062,1.5 -0.0469,3.09375 0.17187,2.73438 1.54687,4.32813 1.39063,1.59375 3.79688,1.67187 z m 27.98437,-22.78125 q 3.1875,0.0469 5.45313,1.73438 2.28125,1.6875 3.375,4.65625 1.09375,2.95312 0.73437,6.46875 l -0.0469,0.51562 q -0.4375,3.70313 -2.20313,6.70313 -1.75,2.98437 -4.54687,4.65625 -2.78125,1.65625 -6.10938,1.5625 -3.17187,-0.0469 -5.45312,-1.73438 -2.28125,-1.6875 -3.34375,-4.59375 -1.04688,-2.90625 -0.75,-6.40625 0.35937,-3.9375 2.14062,-7.07812 1.78125,-3.14063 4.57813,-4.85938 2.79687,-1.71875 6.17187,-1.625 z m -8.625,13.59375 q -0.15625,1.46875 0,3.0625 0.23438,2.76563 1.65625,4.40625 1.42188,1.64063 3.78125,1.71875 2.10938,0.0625 3.89063,-1.04687 1.78125,-1.10938 3,-3.35938 1.21875,-2.25 1.57812,-5 0.1875,-2.15625 0.0625,-3.625 -0.28125,-2.84375 -1.71875,-4.48437 -1.42187,-1.64063 -3.78125,-1.73438 -3.28125,-0.0625 -5.57812,2.59375 -2.29688,2.64063 -2.84375,6.92188 l -0.0469,0.54687 z m 29.74219,-13.15625 -0.60937,3.21875 q 3.42187,-3.75 7.78125,-3.65625 3.59375,0.0937 5.29687,2.48438 1.71875,2.39062 1.26563,6.71875 l -2.76563,16.625 -4.23437,0 2.78125,-16.6875 q 0.14062,-1.15625 0.0312,-2.14063 -0.40625,-3.28125 -3.875,-3.34375 -3.8125,-0.0781 -6.70313,4.07813 l -3.14062,18.09375 -4.23438,0 4.40625,-25.35938 4,-0.0312 z m 28.71875,-6.10937 -1.07812,6.14062 4.60937,0 -0.57812,3.34375 -4.59375,0 -2.65625,15.78125 q -0.0625,0.60938 -0.0156,1.125 0.15625,1.82813 1.98438,1.82813 0.78125,0 2.0625,-0.23438 l -0.32813,3.54688 q -1.51562,0.42187 -3.09375,0.42187 -2.53125,-0.0469 -3.79687,-1.85937 -1.26563,-1.82813 -0.98438,-4.90625 l 2.57813,-15.70313 -4.46875,0 0.57812,-3.34375 4.48438,0 1.07812,-6.14062 4.21875,0 z m 20.00781,10 -1.98437,-0.20313 q -4.07813,0 -6.42188,3.67188 l -3.125,18.03125 -4.23437,0 4.40625,-25.35938 4.09375,-0.0312 -0.625,2.95313 q 2.6875,-3.53125 6.34375,-3.4375 0.78125,0 2.01562,0.34375 l -0.46875,4.03125 z m 11.1875,21.96875 q -4.73437,-0.0937 -7.40625,-3.48438 -2.67187,-3.40625 -2.25,-8.70312 l 0.10938,-1.01563 q 0.40625,-3.76562 2.23437,-6.875 1.84375,-3.125 4.48438,-4.70312 2.65625,-1.59375 5.73437,-1.51563 3.90625,0.0937 6.125,2.60938 2.23438,2.5 2.45313,6.78125 0.0625,1.53125 -0.0937,3.04687 l -0.26563,1.95313 -16.5625,0 q -0.42187,3.4375 1.125,5.85937 1.5625,2.40625 4.65625,2.5 3.75,0.0937 6.9375,-3.375 l 2.4375,2.0625 q -1.59375,2.29688 -4.10937,3.60938 -2.51563,1.29687 -5.60938,1.25 z m 2.6875,-22.76563 q -2.625,-0.0625 -4.57812,1.79688 -1.95313,1.84375 -3.10938,5.5 l 12.32813,0.0156 0.0937,-0.375 q 0.375,-2.95312 -0.95313,-4.90625 -1.3125,-1.95312 -3.78125,-2.03125 z m 26.9375,15.42188 q 0.34375,-2.625 -2.89062,-3.70313 l -4.40625,-1.28125 q -5.57813,-1.92187 -5.39063,-6.375 0.17188,-3.35937 3.0625,-5.5 2.89063,-2.14062 6.8125,-2.09375 3.84375,0.0469 6.23438,2.23438 2.40625,2.1875 2.3125,5.70312 l -4.21875,-0.0156 q 0.0469,-1.90625 -1.20313,-3.09375 -1.23437,-1.20313 -3.29687,-1.25 -2.20313,-0.0469 -3.79688,1.07812 -1.46875,1.0625 -1.70312,2.76563 -0.3125,2.20312 2.6875,3.21875 l 2.14062,0.57812 q 4.35938,1.125 6.1875,2.9375 1.82813,1.79688 1.6875,4.46875 -0.14062,2.375 -1.54687,4.14063 -1.40625,1.75 -3.75,2.6875 -2.34375,0.92187 -5,0.84375 -4.03125,-0.0469 -6.65625,-2.35938 -2.625,-2.3125 -2.53125,-5.9375 l 4.25,0.0156 q 0,2.14062 1.35937,3.4375 1.35938,1.28125 3.71875,1.28125 2.32813,0.0469 4.01563,-0.96875 1.6875,-1.03125 1.92187,-2.8125 z m 25.65625,6.875 -4.375,0 5.92188,-34.125 4.39062,0 -5.9375,34.125 z m 29.09375,-15.07813 -13.875,0 -2.625,15.07813 -4.40625,0 5.92188,-34.125 20.53125,0 -0.65625,3.70312 -16.125,0 -2.01563,11.67188 13.90625,0 -0.65625,3.67187 z"
         inkscape:connector-curvature="0"
         style="fill:#134f5c;fill-rule:nonzero"
         inkscape:export-xdpi="18.560295"
         inkscape:export-ydpi="18.560295" />
    </g>
  </g>
</svg>
